<svg id="svg" xmlns="http://www.w3.org/2000/svg" xmlns:xlink="http://www.w3.org/1999/xlink" width="400" height="400" viewBox="0, 0, 400,400" version="1.1"><g id="svgg"><path id="path0" d="M102.083 72.548 C 91.771 74.534,83.364 76.836,83.403 77.663 C 83.441 78.490,89.031 120.417,95.825 170.833 C 102.619 221.250,110.604 282.188,113.570 306.250 C 119.236 352.228,121.214 353.674,166.165 344.684 L 192.747 339.367 187.069 286.350 C 181.453 233.905,181.615 233.333,202.119 233.333 C 221.314 233.333,223.274 237.105,228.615 284.314 L 234.383 335.296 268.962 329.766 C 311.822 322.913,308.378 328.771,302.579 272.578 C 296.931 217.854,243.317 166.667,191.647 166.667 C 169.688 166.667,166.667 163.769,166.667 142.708 C 166.667 71.653,157.640 61.847,102.083 72.548 " stroke="none" fill="#000000" fill-rule="evenodd"></path></g></svg>