<svg xmlns="http://www.w3.org/2000/svg" xmlns:v="https://svgstorm.com"
viewBox = "0 0 48 48"
width="48"
height="48">
<g fill="#000000" fill-opacity="0.00" stroke="None"><path d="
M 0.00 5.00 
C 11.09 5.00 21.79 0.30 33.00 1.00
C 32.77 0.66 33.00 0.00 33.00 0.00
L 0.00 0.00
L 0.00 5.00 Z"/>
</g>
<g fill="#CCCCCC" fill-opacity="0.15" stroke="None"><path d="
M 33.00 1.00 
C 33.50 1.03 34.50 1.00 35.00 1.00
C 34.77 0.66 35.00 0.00 35.00 0.00
L 33.00 0.00
C 33.00 0.00 32.77 0.66 33.00 1.00 Z"/>
</g>
<g fill="#CACACA" fill-opacity="0.44" stroke="None"><path d="
M 35.00 1.00 
C 35.50 1.00 36.50 1.04 37.00 1.00
C 37.23 0.66 37.00 0.00 37.00 0.00
L 35.00 0.00
C 35.00 0.00 34.77 0.66 35.00 1.00 Z"/>
</g>
<g fill="#C8C8C8" fill-opacity="0.72" stroke="None"><path d="
M 37.00 1.00 
C 37.72 0.95 38.93 1.13 39.00 0.00
L 37.00 0.00
C 37.00 0.00 37.23 0.66 37.00 1.00 Z"/>
</g>
<g fill="#C7C7C7" fill-opacity="0.95" stroke="None"><path d="
M 37.00 1.00 
C 36.50 1.04 35.50 1.00 35.00 1.00
C 34.50 1.00 33.50 1.03 33.00 1.00
C 21.79 0.30 11.09 5.00 0.00 5.00
L 0.00 7.00
C 0.95 7.03 1.00 8.34 1.00 9.00
C 1.46 9.44 0.74 11.14 0.00 11.00
L 0.00 12.00
C 1.00 12.04 0.94 13.32 1.00 14.00
C 2.02 25.50 3.83 36.53 5.00 48.00
L 8.00 48.00
C 8.03 47.05 9.34 47.00 10.00 47.00
C 10.44 46.54 12.14 47.26 12.00 48.00
L 13.00 48.00
C 23.38 45.51 34.98 44.38 46.00 43.00
C 45.77 28.31 41.94 14.53 41.00 0.00
L 39.00 0.00
C 38.93 1.13 37.72 0.95 37.00 1.00 Z"/>
</g>
<g fill="#000000" fill-opacity="0.00" stroke="None"><path d="
M 13.00 48.00 
L 48.00 48.00
L 48.00 0.00
L 41.00 0.00
C 41.94 14.53 45.77 28.31 46.00 43.00
C 34.98 44.38 23.38 45.51 13.00 48.00 Z"/>
</g>
<g fill="#C8C8C8" fill-opacity="0.73" stroke="None"><path d="
M 0.00 9.00 
C 0.50 9.00 1.00 9.00 1.00 9.00
C 1.00 8.34 0.95 7.03 0.00 7.00
L 0.00 9.00 Z"/>
</g>
<g fill="#5C5C5C" fill-opacity="1.00" stroke="None"><path d="
M 19.00 8.00 
C 15.77 7.44 13.01 8.79 10.00 9.00
C 10.82 20.14 13.05 30.92 14.00 42.00
C 17.28 42.69 19.82 40.59 23.00 41.00
C 24.28 36.29 18.09 26.22 27.00 28.00
C 26.40 32.23 27.81 35.99 28.00 40.00
C 31.23 40.56 33.99 39.21 37.00 39.00
C 36.55 32.77 36.61 24.12 29.08 21.92 C 21.55 19.72 18.19 17.00 19.00 8.00 Z"/>
</g>
<g fill="#CACACA" fill-opacity="0.45" stroke="None"><path d="
M 0.00 11.00 
C 0.74 11.14 1.46 9.44 1.00 9.00
C 1.00 9.00 0.50 9.00 0.00 9.00
L 0.00 11.00 Z"/>
</g>
<g fill="#DEDEDE" fill-opacity="0.06" stroke="None"><path d="
M 0.00 14.00 
C 0.50 14.00 1.00 14.00 1.00 14.00
C 0.94 13.32 1.00 12.04 0.00 12.00
L 0.00 14.00 Z"/>
</g>
<g fill="#000000" fill-opacity="0.00" stroke="None"><path d="
M 0.00 48.00 
L 5.00 48.00
C 3.83 36.53 2.02 25.50 1.00 14.00
C 1.00 14.00 0.50 14.00 0.00 14.00
L 0.00 48.00 Z"/>
</g>
<g fill="#C8C8C8" fill-opacity="0.58" stroke="None"><path d="
M 8.00 48.00 
L 10.00 48.00
C 10.00 47.50 10.00 47.00 10.00 47.00
C 9.34 47.00 8.03 47.05 8.00 48.00 Z"/>
</g>
<g fill="#C9C9C9" fill-opacity="0.29" stroke="None"><path d="
M 10.00 48.00 
L 12.00 48.00
C 12.14 47.26 10.44 46.54 10.00 47.00
C 10.00 47.00 10.00 47.50 10.00 48.00 Z"/>
</g>
</svg>